<svg xmlns="http://www.w3.org/2000/svg" viewBox="0 0 32 32">
  <defs>
    <linearGradient id="g" x1="0" y1="0" x2="32" y2="32" gradientUnits="userSpaceOnUse">
      <stop stop-color="#00d4aa"/>
      <stop offset="1" stop-color="#00ff88"/>
    </linearGradient>
  </defs>
  <rect width="32" height="32" rx="7" fill="url(#g)"/>
  <path d="M21 9c3-1 5 1 4 4-1 3-5 6-8 8s-5 5-5 7" stroke="#020408" stroke-width="3.5" stroke-linecap="round" fill="none"/>
  <circle cx="22" cy="8" r="3.5" fill="#020408"/>
  <circle cx="23" cy="7" r="1.2" fill="#fff"/>
  <path d="M24 5c2-2 4-2 5-1M23 4c1-2 3-3 4-2" stroke="#020408" stroke-width="1.2" fill="none" stroke-linecap="round"/>
  <path d="M12 28c-2 1-4 0-5-2M12 28c-1 2-3 3-5 3M12 28c0 2-1 4-2 4" stroke="#020408" stroke-width="1.5" fill="none" stroke-linecap="round"/>
</svg>